<svg width="27" height="49" viewBox="0 0 27 49" fill="none" xmlns="http://www.w3.org/2000/svg">
<path d="M13.5 0C6 0 0 6.09375 0 13.5C0 20.5312 5.25 26.1562 12 26.9062V46.2188L13.0312 47.8125C13.2188 48.0938 13.6875 48.0938 13.875 47.8125L15 46.2188V26.9062C21.6562 26.1562 27 20.5312 27 13.5C27 6.09375 20.9062 0 13.5 0ZM13.5 24C7.6875 24 3 19.3125 3 13.5C3 7.78125 7.6875 3 13.5 3C19.2188 3 24 7.78125 24 13.5C24 19.3125 19.2188 24 13.5 24ZM13.5 6C9.28125 6 6 9.375 6 13.5C6 14.3438 6.65625 15 7.5 15C8.25 15 9 14.3438 9 13.5C9 11.0625 10.9688 9 13.5 9C14.25 9 15 8.34375 15 7.5C15 6.75 14.25 6 13.5 6Z" fill="#55B055"/>
</svg>
