<svg width="49" height="36" viewBox="0 0 49 36" fill="none" xmlns="http://www.w3.org/2000/svg">
<path d="M44 0H5C2.46875 0 0.5 2.0625 0.5 4.5V31.5C0.5 34.0312 2.46875 36 5 36H44C46.4375 36 48.5 34.0312 48.5 31.5V4.5C48.5 2.0625 46.4375 0 44 0ZM5 3H44C44.75 3 45.5 3.75 45.5 4.5V8.4375C43.4375 10.125 40.4375 12.5625 31.3438 19.7812C29.75 21.0938 26.6562 24.0938 24.5 24C22.25 24.0938 19.1562 21.0938 17.5625 19.7812C8.46875 12.5625 5.46875 10.125 3.5 8.4375V4.5C3.5 3.75 4.15625 3 5 3ZM44 33H5C4.15625 33 3.5 32.3438 3.5 31.5V12.2812C5.5625 14.0625 8.9375 16.7812 15.6875 22.125C17.6562 23.7188 21.0312 27.0938 24.5 27C27.875 27.0938 31.25 23.7188 33.2188 22.125C39.9688 16.7812 43.3438 14.0625 45.5 12.2812V31.5C45.5 32.3438 44.75 33 44 33Z" fill="#55B055"/>
</svg>
