<svg width="49" height="48" viewBox="0 0 49 48" fill="none" xmlns="http://www.w3.org/2000/svg">
<path d="M46.1562 2.34375L36.7812 0.09375C35.375 -0.1875 33.9688 0.46875 33.4062 1.78125L29 12C28.5312 13.2188 28.8125 14.625 29.8438 15.375L34.9062 19.5C31.7188 26.0625 26.4688 31.3125 19.9062 34.5L15.7812 29.4375C15.0312 28.4062 13.625 28.125 12.4062 28.5938L2.1875 33C0.96875 33.5625 0.21875 34.9688 0.5 36.2812L2.75 45.75C3.03125 47.0625 4.15625 48 5.5625 48C29.1875 48 48.5 28.875 48.5 5.15625C48.5 3.75 47.5625 2.625 46.1562 2.34375ZM5.65625 45L3.5 35.7188L13.5312 31.4062L19.1562 38.25C28.8125 33.6562 34.0625 28.4062 38.6562 18.75L31.8125 13.125L36.125 3.09375L45.4062 5.25C45.4062 27.1875 27.5938 45 5.65625 45Z" fill="#55B055"/>
</svg>
